<?xml version="1.0" standalone="no"?>
<!DOCTYPE svg PUBLIC "-//W3C//DTD SVG 20010904//EN"
 "http://www.w3.org/TR/2001/REC-SVG-20010904/DTD/svg10.dtd">
<svg version="1.0" xmlns="http://www.w3.org/2000/svg"
 width="500.000000pt" height="500.000000pt" viewBox="0 0 500.000000 500.000000"
 preserveAspectRatio="xMidYMid meet">

<g transform="translate(0.000000,500.000000) scale(0.100000,-0.100000)"
fill="#000000" stroke="none">
<path d="M1090 4303 c-58 -7 -132 -34 -185 -68 -198 -127 -265 -367 -160 -580
138 -283 514 -336 730 -103 30 33 55 63 55 69 0 5 387 9 1018 9 856 0 1028 -3
1087 -15 200 -42 367 -195 426 -388 28 -91 26 -250 -4 -338 -64 -186 -213
-326 -402 -374 -51 -13 -203 -15 -1120 -15 -605 0 -1095 -4 -1143 -10 -365
-42 -654 -336 -693 -704 -25 -239 58 -472 228 -638 103 -102 218 -168 368
-210 l80 -23 1048 0 c1036 0 1049 0 1060 -20 21 -38 101 -117 145 -142 257
-151 592 -14 667 272 62 241 -82 487 -321 549 -165 42 -330 -6 -443 -129 -63
-70 -100 -146 -114 -235 l-11 -70 -991 0 c-1087 0 -1051 -2 -1182 61 -74 35
-177 128 -224 200 -73 114 -103 268 -80 404 35 197 177 361 378 438 l58 22
1140 6 c892 4 1151 8 1190 18 386 102 631 427 612 811 -7 131 -25 200 -82 315
-84 171 -226 305 -398 377 -155 64 -104 61 -1212 65 -769 3 -1011 7 -1017 16
-4 7 -8 26 -8 43 0 73 -62 196 -135 266 -88 85 -241 136 -365 121z"/>
</g>
</svg>
