<svg xmlns="http://www.w3.org/2000/svg" width="300" height="266" viewBox="0 0 300 266">
  <path fill="#000000" d="M198.543 78.086l74.844 11.016c6.196.883 11.407 5.246 13.383 11.219 1.981 6.028.367 12.575-4.113 17.044l-54.27 53.094 12.813 76.164c1.039 6.234-1.512 12.574-6.719 16.261-5.156 3.688-11.98 4.157-17.555 1.196l-66.875-35.59-66.82 35.59c-5.625 2.961-12.449 2.492-17.605-1.196-5.157-3.687-7.762-10.027-6.668-16.261l12.813-76.164-54.281-53.094c-4.484-4.469-6.078-11.016-4.11-17.043 1.965-5.973 7.156-10.336 13.402-11.219l74.781-11.016 33.543-68.75c2.758-5.723 8.594-9.356 14.945-9.356 6.406 0 12.242 3.633 15 9.356z"/>
</svg>
