<svg xmlns="http://www.w3.org/2000/svg" width="300" height="300" viewBox="0 0 300 300">
  <path fill="#000000" d="M149.875 25c-69 0-125 56-125 125s56 125 125 125 125-56 125-125-56-125-125-125zm45.125 79.25c13.375 0 24.125 10.75 24.125 24.125s-10.75 24.125-24.125 24.125c-13.375 0-24.125-10.75-24.125-24.125-.125-13.375 10.75-24.125 24.125-24.125zM120 84.5c16.25 0 29.5 13.25 29.5 29.5s-13.25 29.5-29.5 29.5c-16.25 0-29.5-13.25-29.5-29.5S103.625 84.5 120 84.5zm0 114.125v46.875c-30-9.375-53.75-32.5-64.25-62-13.125-14 19.625-21.125 38-21.125 6.625 0 15 1 23.75 2.75-20.5 10.875-23.75 25.25-23.75 33.5zm29.875 51.375c-3.375 0-6.625-.125-9.875-.5v-51.375c0-17.75 36.75-26.625 55-26.625 13.375 0 36.5 4.875 48 14.375-14.625 37.125-50.75 63.625-93.125 63.625z"/>
</svg>
