<?xml version="1.0" encoding="UTF-8"?>
<svg xmlns="http://www.w3.org/2000/svg" xmlns:xlink="http://www.w3.org/1999/xlink" width="300px" height="300px" viewBox="0 0 300 300" version="1.1">
<g id="surface1">
<path style=" stroke:none;fill-rule:nonzero;fill:rgb(9.411765%,85.490197%,4.705882%);fill-opacity:1;" d="M 237.5 37.5 L 185.25 37.5 C 180 23 166.25 12.5 150 12.5 C 133.75 12.5 120 23 114.75 37.5 L 62.5 37.5 C 48.75 37.5 37.5 48.75 37.5 62.5 L 37.5 237.5 C 37.5 251.25 48.75 262.5 62.5 262.5 L 237.5 262.5 C 251.25 262.5 262.5 251.25 262.5 237.5 L 262.5 62.5 C 262.5 48.75 251.25 37.5 237.5 37.5 Z M 150 37.5 C 156.875 37.5 162.5 43.125 162.5 50 C 162.5 56.875 156.875 62.5 150 62.5 C 143.125 62.5 137.5 56.875 137.5 50 C 137.5 43.125 143.125 37.5 150 37.5 Z M 125 212.5 L 75 162.5 L 92.625 144.875 L 125 177.125 L 207.375 94.75 L 225 112.5 Z M 125 212.5 "/>
</g>
</svg>
