<?xml version="1.0" standalone="no"?>
<!DOCTYPE svg PUBLIC "-//W3C//DTD SVG 20010904//EN"
 "http://www.w3.org/TR/2001/REC-SVG-20010904/DTD/svg10.dtd">
<svg version="1.0" xmlns="http://www.w3.org/2000/svg"
 width="700.000000pt" height="700.000000pt" viewBox="0 0 700.000000 700.000000"
 preserveAspectRatio="xMidYMid meet">

<g transform="translate(0.000000,700.000000) scale(0.100000,-0.100000)"
fill="#000000" stroke="none">
<path d="M3290 6710 c-639 -88 -1145 -541 -1295 -1161 -135 -557 63 -1155 503
-1520 345 -287 766 -405 1207 -340 627 93 1128 565 1266 1193 30 135 37 388
15 535 -63 430 -306 812 -668 1050 -165 109 -341 182 -537 224 -110 23 -384
34 -491 19z"/>
<path d="M3160 3354 c-460 -17 -875 -45 -1150 -79 -265 -32 -322 -81 -535
-462 -196 -348 -339 -706 -415 -1045 -74 -323 -111 -810 -76 -979 40 -188 186
-328 373 -358 168 -27 547 -66 986 -101 212 -17 2090 -13 2331 5 437 32 927
89 1006 116 117 41 204 122 262 245 l33 69 0 265 c-1 197 -5 300 -19 400 -67
504 -215 927 -504 1435 -109 194 -152 255 -204 298 -54 44 -130 83 -188 96
-95 21 -594 65 -910 81 -214 11 -840 19 -990 14z"/>
</g>
</svg>
