<svg xmlns="http://www.w3.org/2000/svg" width="300" height="300" viewBox="0 0 300 300">
  <path fill="#000000" d="M156.25 125c0-20.625-16.875-37.5-37.5-37.5s-37.5 16.875-37.5 37.5 16.875 37.5 37.5 37.5 37.5-16.875 37.5-37.5zm-37.5 12.5c-6.875 0-12.5-5.625-12.5-12.5s5.625-12.5 12.5-12.5 12.5 5.625 12.5 12.5-5.625 12.5-12.5 12.5zm81.25 25c13.875 0 25-11.125 25-25s-11.125-25-25-25c-13.875 0-25.125 11.125-25 25 0 13.875 11.125 25 25 25zM149.875 25.125c-69 0-125 56-125 125s56 125 125 125 125-56 125-125-56-125-125-125zM73 214c8.5-6.75 28.375-13.875 45.75-13.875 1 .125 2 .125 3 .125 3-8 8.375-16.125 16.25-23.25-6.309-1.207-12.703-1.879-19.125-2-16.25 0-42.375 5.625-59.125 17.875-6.25-13-9.75-27.5-9.75-42.875 0-55.125 44.875-100 100-100s100 44.875 100 100c0 15-3.375 29.25-9.375 42.125-12.5-7.375-29-10.875-40-10.875-19 0-56.25 10.125-56.25 33.75v34.75c-27.527-1.566-53.16-14.52-70.75-35.75z"/>
</svg>
