<svg xmlns="http://www.w3.org/2000/svg" viewBox="0 0 24 24" fill="currentColor">
  <!-- Bell body -->
  <path d="M12 22 C10.9 22 10 21.1 10 20 L14 20 C14 21.1 13.1 22 12 22 Z"/>
  <path d="M19 17 L5 17 L5 16 L6.5 14.5 L6.5 10 C6.5 7.1 8.4 4.7 11 4.1 L11 3.5 C11 2.9 11.4 2.5 12 2.5 C12.6 2.5 13 2.9 13 3.5 L13 4.1 C15.6 4.7 17.5 7.1 17.5 10 L17.5 14.5 L19 16 Z"/>
  <!-- Ringing arcs left -->
  <path d="M4.2 7.8 C3.5 9 3 10.4 3 12" stroke="currentColor" stroke-width="1.5" fill="none" stroke-linecap="round"/>
  <!-- Ringing arcs right -->
  <path d="M19.8 7.8 C20.5 9 21 10.4 21 12" stroke="currentColor" stroke-width="1.5" fill="none" stroke-linecap="round"/>
</svg>
