<svg xmlns="http://www.w3.org/2000/svg" viewBox="0 0 24 24" fill="currentColor">
  <!-- Large sparkle centered at (8,10), radius 7 -->
  <path d="M8,3 C8.35,5.6 8.8,7.4 9.6,8.2 C10.4,9.0 12.4,9.6 15,10 C12.4,10.4 10.4,11.0 9.6,11.8 C8.8,12.6 8.35,14.4 8,17 C7.65,14.4 7.2,12.6 6.4,11.8 C5.6,11.0 3.6,10.4 1,10 C3.6,9.6 5.6,9.0 6.4,8.2 C7.2,7.4 7.65,5.6 8,3 Z"/>
  <!-- Small sparkle upper-right centered at (18.5,5), radius 3.5 -->
  <path d="M18.5,1.5 C18.65,2.9 18.9,3.8 19.3,4.2 C19.7,4.6 20.6,4.85 22,5 C20.6,5.15 19.7,5.4 19.3,5.8 C18.9,6.2 18.65,7.1 18.5,8.5 C18.35,7.1 18.1,6.2 17.7,5.8 C17.3,5.4 16.4,5.15 15,5 C16.4,4.85 17.3,4.6 17.7,4.2 C18.1,3.8 18.35,2.9 18.5,1.5 Z"/>
  <!-- Medium sparkle lower-right centered at (18,18.5), radius 4.5 -->
  <path d="M18,14 C18.2,15.8 18.55,17.0 19.1,17.55 C19.65,18.1 20.85,18.45 22.5,18.5 C20.85,18.55 19.65,18.9 19.1,19.45 C18.55,20.0 18.2,21.2 18,23 C17.8,21.2 17.45,20.0 16.9,19.45 C16.35,18.9 15.15,18.55 13.5,18.5 C15.15,18.45 16.35,18.1 16.9,17.55 C17.45,17.0 17.8,15.8 18,14 Z"/>
</svg>
