<?xml version="1.0" standalone="no"?>
<!DOCTYPE svg PUBLIC "-//W3C//DTD SVG 20010904//EN"
 "http://www.w3.org/TR/2001/REC-SVG-20010904/DTD/svg10.dtd">
<svg version="1.0" xmlns="http://www.w3.org/2000/svg"
 width="700.000000pt" height="700.000000pt" viewBox="0 0 700.000000 700.000000"
 preserveAspectRatio="xMidYMid meet">

<g transform="translate(0.000000,700.000000) scale(0.100000,-0.100000)"
fill="#000000" stroke="none">
<path d="M3068 6550 c-43 -13 -96 -49 -118 -80 -12 -16 -34 -64 -49 -107 -29
-79 -161 -438 -361 -983 -60 -162 -149 -405 -198 -540 -136 -371 -318 -869
-374 -1020 -43 -117 -49 -143 -46 -192 6 -78 47 -144 113 -180 l50 -28 603 0
c661 0 656 0 686 -59 20 -38 20 -81 1 -123 -13 -29 -187 -466 -432 -1088 -46
-118 -165 -417 -263 -665 -98 -247 -233 -587 -299 -754 -67 -167 -121 -317
-121 -333 0 -88 91 -144 170 -103 28 15 120 136 859 1140 48 66 211 287 361
490 278 376 904 1224 1059 1436 48 64 132 179 188 255 57 77 141 191 187 254
49 66 90 133 97 157 25 90 -14 194 -92 249 l-42 29 -507 5 c-468 5 -508 6
-534 23 -34 22 -60 81 -51 115 5 21 139 267 545 1002 449 812 443 802 448 863
5 70 -15 130 -60 176 -69 71 -1 66 -943 68 -467 1 -862 -2 -877 -7z"/>
</g>
</svg>
