<?xml version="1.0" standalone="no"?>
<!DOCTYPE svg PUBLIC "-//W3C//DTD SVG 20010904//EN"
 "http://www.w3.org/TR/2001/REC-SVG-20010904/DTD/svg10.dtd">
<svg version="1.0" xmlns="http://www.w3.org/2000/svg"
 width="700.000000pt" height="700.000000pt" viewBox="0 0 700.000000 700.000000"
 preserveAspectRatio="xMidYMid meet">

<g transform="translate(0.000000,700.000000) scale(0.100000,-0.100000)"
fill="#000000" stroke="none">
<path d="M3487 5613 c-27 -82 -74 -229 -107 -328 -72 -222 -136 -419 -280
-865 -61 -190 -115 -355 -120 -367 l-10 -23 -911 -2 -911 -3 344 -250 c189
-138 520 -379 735 -535 363 -263 392 -287 387 -310 -3 -14 -29 -99 -59 -190
-29 -91 -104 -320 -165 -510 -62 -190 -161 -496 -221 -679 -59 -184 -107 -336
-105 -338 2 -3 690 494 881 637 52 38 245 179 466 338 l129 93 68 -48 c73 -52
228 -165 307 -223 189 -141 1099 -800 1101 -797 2 1 -49 162 -112 357 -63 195
-166 513 -229 705 -62 193 -137 423 -166 512 -29 90 -51 165 -48 167 2 2 312
227 688 501 377 274 707 514 733 534 l49 36 -913 5 -912 5 -13 35 c-7 19 -58
177 -113 350 -56 173 -155 479 -220 680 -65 201 -140 431 -166 513 -27 81 -51
147 -54 147 -3 0 -27 -66 -53 -147z"/>
</g>
</svg>
