<?xml version="1.0" standalone="no"?>
<!DOCTYPE svg PUBLIC "-//W3C//DTD SVG 20010904//EN"
 "http://www.w3.org/TR/2001/REC-SVG-20010904/DTD/svg10.dtd">
<svg version="1.0" xmlns="http://www.w3.org/2000/svg"
 width="257.000000pt" height="224.000000pt" viewBox="0 0 257.000000 224.000000"
 preserveAspectRatio="xMidYMid meet">

<g transform="translate(0.000000,224.000000) scale(0.100000,-0.100000)"
fill="#000000" stroke="none">
<path d="M773 2003 c-11 -28 19 -98 45 -101 33 -5 38 23 14 74 -22 45 -48 57
-59 27z"/>
<path d="M1144 1995 c-9 -13 -17 -39 -18 -57 -1 -27 3 -34 20 -36 18 -3 25 6
39 42 10 25 15 52 12 61 -9 23 -34 18 -53 -10z"/>
<path d="M910 1847 c-95 -27 -176 -100 -204 -185 -9 -25 -16 -76 -16 -112 0
-55 6 -78 31 -128 24 -50 35 -62 54 -62 35 0 35 19 2 78 -95 169 44 381 235
359 100 -12 184 -88 208 -186 13 -53 31 -69 54 -46 11 11 12 24 5 56 -37 164
-211 271 -369 226z"/>
<path d="M507 1743 c-19 -18 -4 -43 36 -61 48 -21 77 -18 77 9 0 29 -93 72
-113 52z"/>
<path d="M1382 1733 c-35 -18 -42 -55 -10 -61 28 -5 93 31 93 53 0 26 -39 30
-83 8z"/>
<path d="M922 1660 c-36 -22 -62 -72 -62 -120 0 -17 41 -137 91 -268 50 -130
95 -247 100 -260 9 -23 8 -22 -38 5 -64 37 -140 39 -177 4 -38 -36 -36 -92 7
-156 49 -74 193 -271 248 -340 133 -168 273 -252 434 -262 324 -20 583 237
537 534 -21 133 -185 513 -236 547 -35 22 -108 23 -141 2 -23 -15 -27 -15 -57
4 -54 33 -113 25 -164 -21 -19 -18 -22 -18 -53 -3 -41 21 -103 14 -143 -16
-16 -12 -31 -20 -33 -18 -1 1 -28 70 -59 152 -63 167 -81 197 -130 220 -45 21
-84 20 -124 -4z m114 -63 c20 -17 48 -77 104 -223 70 -183 78 -199 100 -199
18 0 26 7 30 25 7 34 21 55 47 69 34 18 57 13 99 -20 l39 -31 15 22 c56 82 98
91 153 35 40 -41 54 -43 69 -11 6 14 23 30 39 37 37 15 71 -5 98 -59 46 -91
153 -357 167 -419 52 -221 -83 -426 -321 -488 -171 -44 -322 5 -471 155 -59
59 -295 374 -328 437 -15 29 -15 33 1 48 37 37 125 -6 203 -99 52 -63 68 -72
88 -52 12 12 -4 60 -117 355 -72 187 -131 352 -131 365 0 33 37 76 65 76 13 0
36 -10 51 -23z"/>
<path d="M550 1403 c-38 -20 -51 -49 -25 -59 9 -4 36 1 61 11 36 14 45 21 42
39 -4 28 -34 31 -78 9z"/>
</g>
</svg>
