<?xml version="1.0" standalone="no"?>
<!DOCTYPE svg PUBLIC "-//W3C//DTD SVG 20010904//EN"
 "http://www.w3.org/TR/2001/REC-SVG-20010904/DTD/svg10.dtd">
<svg version="1.0" xmlns="http://www.w3.org/2000/svg"
 width="500.000000pt" height="500.000000pt" viewBox="0 0 500.000000 500.000000"
 preserveAspectRatio="xMidYMid meet">

<g transform="translate(0.000000,500.000000) scale(0.100000,-0.100000)"
fill="#000000" stroke="none">
<path d="M1920 4182 c-49 -25 -72 -71 -78 -156 -8 -126 51 -445 125 -681 90
-286 154 -616 128 -652 -10 -13 -17 -8 -47 33 -49 68 -132 237 -223 453 -109
262 -220 499 -260 553 -39 53 -79 78 -129 80 -124 5 -167 -110 -108 -287 39
-118 198 -551 269 -735 103 -269 132 -370 104 -370 -16 0 -129 130 -191 221
-33 48 -99 157 -146 241 -133 236 -186 312 -237 337 -52 25 -78 26 -123 5 -48
-23 -67 -64 -62 -131 5 -60 94 -250 193 -413 87 -143 182 -330 295 -580 150
-333 300 -633 369 -736 176 -266 482 -406 795 -365 242 33 530 183 657 344
124 156 198 371 269 772 66 373 106 525 201 761 56 141 60 174 25 209 -34 34
-84 41 -151 19 -68 -21 -112 -55 -176 -135 -84 -104 -145 -251 -204 -493 -30
-121 -54 -185 -79 -205 -14 -12 -19 -11 -38 5 -29 26 -52 82 -82 199 -53 211
-75 369 -101 722 -24 323 -70 720 -95 804 -23 80 -87 143 -145 143 -73 0 -127
-74 -145 -199 -14 -103 -12 -495 5 -690 24 -274 18 -445 -14 -445 -13 0 -56
110 -85 215 -14 50 -63 239 -110 420 -154 596 -192 691 -291 736 -50 23 -71
23 -115 1z"/>
<path d="M3711 3949 c-26 -28 -27 -73 -3 -97 10 -10 55 -26 102 -36 138 -30
260 -98 368 -207 152 -156 230 -365 220 -591 -5 -90 -3 -99 17 -118 28 -26 77
-26 101 1 17 19 19 37 19 168 -1 196 -32 312 -128 476 -56 94 -219 257 -314
312 -88 51 -221 100 -301 109 -53 6 -61 4 -81 -17z"/>
<path d="M3657 3632 c-21 -23 -22 -76 -1 -96 16 -16 27 -20 98 -31 81 -13 146
-46 210 -105 102 -96 144 -211 131 -360 -6 -71 -5 -80 14 -99 24 -24 68 -27
95 -8 36 27 48 181 21 295 -31 131 -125 263 -242 338 -111 72 -289 108 -326
66z"/>
<path d="M601 1885 c-39 -51 -41 -266 -2 -417 64 -250 239 -472 459 -583 90
-46 175 -75 242 -81 64 -7 87 6 96 51 9 48 -18 72 -106 94 -363 92 -599 425
-576 811 7 110 5 120 -31 139 -34 18 -60 13 -82 -14z"/>
<path d="M906 1841 c-35 -39 -47 -185 -25 -293 31 -151 148 -302 286 -372 70
-35 173 -66 221 -66 30 0 72 42 72 73 0 41 -22 58 -95 73 -96 20 -170 58 -231
119 -95 95 -130 199 -119 355 7 94 6 98 -16 114 -31 22 -72 20 -93 -3z"/>
</g>
</svg>
